# xmcd
#
# Track frame offsets:
#	150
#	18013
#	29152
#	50254
#
# Disc length: 1367 seconds
#
# Revision: 1
# Processed by: cddbd v1.5.2PL0 Copyright (c) Steve Scherf et al.
# Submitted via: audiograbber 1.83.01
#
DISCID=28055504
DTITLE=Olli Schulz and der Hund Marie - Jetzt gerade bist Du gut
DYEAR=2005
DGENRE=Indie
TTITLE0=Jetzt gerade bist Du gut
TTITLE1=Ölmann
TTITLE2=Bibi McBenson - Backstage Baby
TTITLE3=Daten-CD
EXTD=
EXTT0=
EXTT1=
EXTT2=
EXTT3=
PLAYORDER=
